<svg id="Capa_1" enable-background="new 0 0 512 512" height="512" viewBox="0 0 512 512" width="512" xmlns="http://www.w3.org/2000/svg"><g><path d="m489.494 471.509h-466.988c-8.279 0-14.991-6.712-14.991-14.991v-401.037c0-8.279 6.712-14.991 14.991-14.991h466.988c8.279 0 14.991 6.712 14.991 14.991v401.036c0 8.28-6.712 14.992-14.991 14.992z" fill="#e6e2e6"/><path d="m489.494 453.474h-466.988c-8.279 0-14.991-6.712-14.991-14.991v18.035c0 8.279 6.712 14.991 14.991 14.991h466.988c8.279 0 14.991-6.712 14.991-14.991v-18.035c0 8.279-6.712 14.991-14.991 14.991z" fill="#d8d1d7"/><path d="m489.494 40.49h-466.988c-8.279 0-14.991 6.712-14.991 14.991v59.933h496.97v-59.933c0-8.279-6.712-14.991-14.991-14.991z" fill="#8c808a"/><path d="m7.515 97.379h496.97v18.035h-496.97z" fill="#7b7179"/><path d="m39.954 152.445h432.488v145.156h-432.488z" fill="#ffc265"/><path d="m39.954 279.566h432.488v18.035h-432.488z" fill="#ffb541"/><path d="m39.954 326.583h432.488v112.78h-432.488z" fill="#8bcaff"/><path d="m39.954 421.328h432.488v18.035h-432.488z" fill="#60b8ff"/><path d="m216.97 183.034h78.054v86.774h-78.054z" fill="#8c808a"/><path d="m216.97 251.772h78.054v18.035h-78.054z" fill="#7b7179"/><g><path d="m263.27 385.896v24.439c0 4.151 3.365 7.515 7.515 7.515s7.515-3.364 7.515-7.515v-24.439c0-4.151-3.365-7.515-7.515-7.515-4.151 0-7.515 3.364-7.515 7.515z"/><path d="m206.509 385.896v24.439c0 4.151 3.365 7.515 7.515 7.515s7.515-3.364 7.515-7.515v-24.439c0-4.151-3.364-7.515-7.515-7.515-4.15 0-7.515 3.364-7.515 7.515z"/><path d="m288.772 355.611v54.724c0 4.151 3.365 7.515 7.515 7.515s7.515-3.364 7.515-7.515v-54.724c0-4.151-3.365-7.515-7.515-7.515s-7.515 3.364-7.515 7.515z"/><path d="m314.274 355.611v54.724c0 4.151 3.365 7.515 7.515 7.515s7.515-3.364 7.515-7.515v-54.724c0-4.151-3.365-7.515-7.515-7.515-4.151 0-7.515 3.364-7.515 7.515z"/><path d="m339.776 385.896v24.439c0 4.151 3.365 7.515 7.515 7.515s7.515-3.364 7.515-7.515v-24.439c0-4.151-3.364-7.515-7.515-7.515-4.15 0-7.515 3.364-7.515 7.515z"/><path d="m365.279 369.425v40.91c0 4.151 3.364 7.515 7.515 7.515 4.15 0 7.515-3.364 7.515-7.515v-40.91c0-4.151-3.365-7.515-7.515-7.515-4.151 0-7.515 3.365-7.515 7.515z"/><path d="m405.81 369.425c0-4.151-3.365-7.515-7.515-7.515s-7.515 3.364-7.515 7.515v40.91c0 4.151 3.365 7.515 7.515 7.515s7.515-3.364 7.515-7.515z"/><path d="m431.313 410.335v-24.439c0-4.151-3.365-7.515-7.515-7.515s-7.515 3.364-7.515 7.515v24.439c0 4.151 3.364 7.515 7.515 7.515 4.15 0 7.515-3.364 7.515-7.515z"/><path d="m39.954 446.878h343.312c4.15 0 7.515-3.364 7.515-7.515s-3.365-7.515-7.515-7.515h-335.797v-97.75h417.458v97.75h-51.602c-4.15 0-7.515 3.364-7.515 7.515s3.365 7.515 7.515 7.515h59.116c4.15 0 7.515-3.364 7.515-7.515v-112.78c0-4.151-3.365-7.515-7.515-7.515h-432.487c-4.15 0-7.515 3.364-7.515 7.515v112.78c0 4.151 3.365 7.515 7.515 7.515z"/><path d="m174.9 354.261c0-7.117-6.343-12.897-13.44-12.189l-44.944 4.397c-6.302.616-11.055 5.856-11.055 12.189v30.605c-1.006-.179-2.033-.295-3.089-.301-.037 0-.073 0-.11 0-9.999 0-18.164 8.105-18.225 18.117-.06 10.05 8.068 18.275 18.118 18.335h.112c4.826 0 9.371-1.866 12.808-5.261 3.288-3.25 5.167-7.534 5.375-12.124.026-.256.04-.52.04-.777v-46.071l39.38-3.853v26.606c-1.011-.178-2.04-.289-3.088-.296-.037 0-.073 0-.11 0-9.999 0-18.165 8.105-18.225 18.117-.06 10.05 8.068 18.275 18.118 18.335h.112c4.826 0 9.371-1.866 12.808-5.261 3.288-3.25 5.167-7.533 5.375-12.125.026-.256.04-.519.04-.776z"/><path d="m235.104 367.843v42.492c0 4.151 3.365 7.515 7.515 7.515s7.515-3.364 7.515-7.515v-42.492c0-4.151-3.365-7.515-7.515-7.515-4.151 0-7.515 3.364-7.515 7.515z"/><path d="m489.494 32.976h-86.642c-4.15 0-7.515 3.364-7.515 7.515s3.365 7.515 7.515 7.515h86.642c4.122 0 7.477 3.353 7.477 7.475v52.419h-481.942v-52.419c0-4.122 3.354-7.475 7.476-7.475h350.288c4.15 0 7.515-3.364 7.515-7.515s-3.365-7.515-7.515-7.515h-350.287c-12.41 0-22.506 10.096-22.506 22.505v401.037c0 12.41 10.096 22.506 22.506 22.506h466.988c12.41 0 22.506-10.096 22.506-22.506v-401.037c0-12.409-10.096-22.505-22.506-22.505zm7.477 423.542c0 4.122-3.354 7.477-7.477 7.477h-466.988c-4.122 0-7.476-3.354-7.476-7.477v-333.589h481.941z"/><path d="m40.462 77.224c0 6.939 5.645 12.584 12.584 12.584s12.584-5.645 12.584-12.584c0-6.938-5.645-12.583-12.584-12.583-6.939-.001-12.584 5.644-12.584 12.583z"/><path d="m78.057 77.224c0 6.939 5.645 12.584 12.584 12.584s12.584-5.645 12.584-12.584c0-6.938-5.645-12.583-12.584-12.583s-12.584 5.644-12.584 12.583z"/><path d="m115.652 77.224c0 6.939 5.645 12.584 12.584 12.584s12.584-5.645 12.584-12.584c0-6.938-5.645-12.583-12.584-12.583s-12.584 5.644-12.584 12.583z"/><path d="m39.954 305.116h57.993c4.15 0 7.515-3.364 7.515-7.515s-3.365-7.515-7.515-7.515h-50.478v-130.126h417.458v130.126h-336.922c-4.15 0-7.515 3.364-7.515 7.515s3.365 7.515 7.515 7.515h344.436c4.15 0 7.515-3.364 7.515-7.515v-145.155c0-4.151-3.365-7.515-7.515-7.515h-432.487c-4.15 0-7.515 3.364-7.515 7.515v145.156c0 4.15 3.365 7.514 7.515 7.514z"/><path d="m216.97 277.322h78.054 28.434c4.15 0 7.515-3.364 7.515-7.515v-28.925-28.925-28.925c0-4.151-3.365-7.515-7.515-7.515h-28.434-78.054-28.434c-4.15 0-7.515 3.364-7.515 7.515v28.925 28.925 28.925c0 4.151 3.365 7.515 7.515 7.515zm85.569-86.774h13.405v13.895h-13.405zm0 28.925h13.405v13.895h-13.405zm0 28.925h13.405v13.895h-13.405zm-78.055-7.515v-28.925-21.41h63.025v21.41 28.925 21.41h-63.025zm-28.434-50.335h13.405v13.895h-13.405zm0 28.925h13.405v13.895h-13.405zm0 28.925h13.405v13.895h-13.405z"/></g></g></svg>